<svg version="1.1" id="Layer_1" xmlns="http://www.w3.org/2000/svg" xmlns:xlink="http://www.w3.org/1999/xlink" x="0px" y="0px"
	 width="100%" viewBox="0 0 1024 1024" enable-background="new 0 0 1024 1024" xml:space="preserve">
<path fill="#000000" opacity="1.000000" stroke="none" 
	d="
M878.565918,495.509644 
	C877.952576,497.134430 880.716492,498.359406 878.611633,499.718994 
	C877.410645,500.494720 876.060059,500.407013 874.736938,500.164337 
	C872.740417,499.798096 872.742554,498.195679 872.730530,496.680725 
	C872.703064,493.213623 872.721863,489.746124 872.721863,486.082855 
	C869.912659,485.697296 867.401489,485.468323 866.035278,487.640869 
	C864.275269,490.439575 865.749695,493.074097 867.711548,495.301361 
	C861.825073,504.641388 851.188904,501.803894 843.036133,505.415436 
	C837.710266,499.389862 827.058289,501.118042 824.398926,491.374298 
	C821.849426,493.632812 822.338196,495.530945 823.866272,496.218262 
	C826.623840,497.458588 825.983582,499.588501 825.906677,501.559937 
	C825.855957,502.862549 824.724426,503.275513 823.447205,503.577698 
	C820.505920,504.273682 819.694580,501.864716 818.484924,500.267731 
	C817.634338,499.144867 817.355652,497.588867 816.595764,495.650085 
	C814.976196,500.919128 809.936279,500.531769 806.445679,502.601013 
	C805.517029,503.151520 804.541931,503.075562 803.924988,504.423157 
	C802.928894,506.598572 800.199646,506.462891 799.424011,505.043610 
	C798.026245,502.485535 796.074158,502.931244 794.455627,503.506226 
	C787.899841,505.835236 783.068726,499.919495 776.999329,500.085999 
	C776.427673,500.101685 775.543945,499.130280 775.290344,498.439117 
	C774.476685,496.222015 773.323547,495.205017 770.785767,495.927399 
	C768.366333,496.616058 768.611023,497.915314 768.616272,500.017059 
	C768.620605,501.754272 767.275879,503.477753 770.059875,504.968964 
	C759.929138,508.556152 757.943481,499.676025 752.544495,495.519196 
	C748.112732,503.643585 740.215637,499.989441 733.551941,500.874207 
	C730.137817,501.327515 728.314636,499.608490 728.695740,495.811890 
	C728.988525,492.894531 729.394348,489.889038 725.529114,488.368042 
	C723.194641,487.449371 724.821411,483.321625 721.461243,482.326965 
	C719.667480,484.023193 717.968140,485.926117 714.907898,486.137512 
	C712.698853,486.290161 712.238098,488.827301 712.207214,490.921661 
	C712.165710,493.735687 712.196960,496.550781 712.196960,499.829498 
	C708.934204,500.634064 705.773315,501.413513 702.785400,502.150299 
	C700.863159,501.033478 702.899597,499.151978 701.705750,498.009888 
	C696.770630,501.305725 695.531067,501.070862 691.766968,496.064972 
	C691.137939,495.228424 690.579163,494.394623 689.402893,494.655792 
	C688.094666,494.946259 687.379150,495.908630 687.403564,497.185669 
	C687.463257,500.310760 685.478516,500.149994 683.134216,500.543640 
	C673.822388,502.107239 664.382629,499.189117 654.928162,501.856842 
	C652.783203,502.462067 646.298584,500.476227 645.710876,494.946289 
	C643.074707,495.330811 643.595337,497.177094 643.204407,498.490784 
	C642.721008,500.114960 641.718079,501.193634 639.938232,500.753174 
	C638.150879,500.310883 637.794373,498.901245 638.087097,497.214600 
	C638.456055,495.087921 639.684631,492.889160 637.757263,490.376373 
	C636.529968,499.683502 632.272522,502.326050 623.329956,499.788269 
	C621.747559,499.339203 620.160889,498.255890 618.523987,499.102692 
	C610.596008,503.204163 604.227600,500.879059 598.770386,494.012238 
	C596.392822,496.609070 594.118469,498.235199 593.090271,501.972321 
	C591.828918,506.557007 593.391418,506.905670 596.790527,506.901367 
	C630.945923,506.858063 665.101318,506.796478 699.256714,506.757233 
	C713.731628,506.740570 728.206604,506.786438 742.681396,506.748566 
	C745.058167,506.742340 747.125000,506.870361 749.350037,504.647430 
	C751.556946,502.442657 755.508423,504.050629 758.138550,505.296570 
	C760.201416,506.273804 762.045349,506.807709 764.215698,506.808960 
	C828.203552,506.845795 892.191345,506.885834 956.179138,506.964050 
	C958.390320,506.966736 960.793274,506.396301 963.113831,508.196533 
	C961.507751,511.006439 959.001343,510.256104 956.913086,510.256409 
	C906.753479,510.263489 856.593872,510.197388 806.434265,510.201630 
	C713.115051,510.209564 619.795898,510.260468 526.476685,510.243347 
	C524.156250,510.242920 521.531616,511.082855 519.176025,508.730225 
	C522.130615,506.886597 525.122070,507.170410 527.975342,507.145905 
	C544.972351,506.999756 561.970642,506.988525 578.967163,506.808014 
	C581.672913,506.779297 585.197571,508.139740 586.141907,503.599487 
	C586.431335,502.208008 588.921814,504.244446 589.469543,501.356201 
	C584.606567,500.333008 579.232422,499.572327 576.915344,494.032257 
	C573.868225,495.531738 573.124207,497.404541 573.924438,499.992920 
	C574.297363,501.199341 574.235535,502.329437 573.093201,503.111115 
	C572.017883,503.846985 570.713440,503.962860 569.877686,503.011322 
	C567.469788,500.269836 564.327942,500.249451 561.141174,500.384705 
	C557.773682,500.527679 556.738708,498.763855 556.971252,495.722473 
	C557.263367,491.903687 557.547180,488.082581 557.722534,484.257324 
	C557.813049,482.284302 558.606567,481.143646 560.627625,480.912750 
	C565.846741,480.316498 571.090454,479.575989 574.152161,485.450989 
	C574.447083,486.016846 575.023071,486.440094 575.488220,486.910187 
	C575.594543,487.017670 575.781982,487.045013 576.637085,487.410797 
	C580.160461,481.135101 586.374207,478.967316 593.933411,479.379120 
	C593.720276,478.525085 593.507141,477.671051 593.294006,476.817017 
	C568.522034,476.319366 543.745422,475.963501 518.680298,476.290680 
	C519.044739,472.679016 521.390442,472.983521 523.187622,473.002655 
	C540.346497,473.185577 557.512268,472.381134 574.664551,473.335571 
	C576.164612,473.419067 577.640503,473.553955 580.144104,472.209656 
	C573.588440,471.175415 569.680115,468.543976 572.301697,461.814575 
	C566.415100,460.669250 560.884399,462.155457 555.103027,460.680939 
	C556.583008,457.458221 560.373840,455.662506 559.674927,451.703827 
	C559.339844,449.806000 560.015015,447.198456 557.262878,446.969849 
	C554.500427,446.740448 554.570801,449.170471 554.264221,451.208832 
	C553.371582,457.143188 546.432129,463.107422 540.532532,462.769135 
	C536.070251,462.513306 531.640503,461.695496 527.194641,461.141388 
	C525.685608,460.953308 524.721436,460.151520 524.489258,458.651154 
	C523.962585,455.247559 523.031311,451.829834 524.467468,448.267639 
	C527.764771,447.809326 528.337402,450.394714 529.247803,452.378967 
	C531.396118,457.061127 535.062439,459.119568 540.073364,458.698944 
	C542.716309,458.477081 544.889709,457.224945 545.627869,454.427856 
	C546.316956,451.816986 545.091370,450.013214 543.045227,448.454803 
	C540.080139,446.196503 536.599976,445.006439 533.312744,443.412659 
	C528.696106,441.174347 525.380371,437.814941 524.733521,432.547668 
	C523.791992,424.881409 529.414307,419.061310 538.303955,418.777069 
	C541.745056,418.666992 545.223511,419.483276 548.673157,419.962585 
	C551.035461,420.290771 551.371094,422.048370 551.365295,424.038910 
	C551.357239,426.785431 551.414551,429.539917 555.011169,429.955719 
	C554.756287,432.128418 553.578064,433.323517 552.603699,434.801056 
	C549.985352,433.319061 548.597839,431.088257 547.389709,428.445770 
	C544.608887,422.363525 539.516296,421.033905 534.531189,424.583710 
	C531.993591,426.390656 532.251648,428.853027 534.211609,429.898529 
	C541.956177,434.029816 548.756042,440.211121 557.875122,441.701019 
	C559.692017,438.566223 555.945068,438.051605 555.702881,435.699158 
	C558.540527,433.380096 562.532410,434.380341 565.962280,432.931824 
	C565.292542,430.639343 563.317810,431.005310 561.945862,430.478851 
	C558.630005,429.206512 556.290466,426.934723 557.390259,423.348419 
	C558.485718,419.776398 561.814087,418.940735 565.203552,419.807190 
	C568.892273,420.750122 569.548767,423.530121 568.620300,426.873474 
	C568.265625,428.150726 567.880615,429.358215 567.967834,430.761108 
	C568.531433,439.829376 569.730103,440.489746 577.435669,435.791199 
	C579.459167,434.557343 581.670837,433.677368 584.022339,433.761993 
	C587.121582,433.873444 589.864929,433.332275 592.498779,431.542358 
	C594.362122,430.276062 596.983337,429.988770 598.640137,431.510712 
	C604.430908,436.830353 611.151306,434.779816 617.537109,434.033386 
	C623.467102,433.340271 627.042114,435.055664 628.474548,440.598145 
	C629.707336,445.367950 629.707336,445.367950 635.588257,445.895020 
	C633.474365,441.718048 633.893494,437.888947 638.035217,435.759827 
	C645.585999,431.878174 652.136292,433.957855 658.105957,440.614014 
	C657.296387,433.930939 664.130127,432.858673 665.944885,428.220154 
	C666.575562,426.608307 668.151489,425.661285 670.046570,426.113312 
	C671.852539,426.544067 672.188354,428.079315 672.179199,429.638031 
	C672.159546,432.992798 674.154358,433.889008 677.046387,433.841858 
	C680.210632,433.790283 683.387329,433.943237 686.537048,433.712646 
	C690.134583,433.449249 692.862671,434.038208 692.965393,439.000763 
	C694.110046,434.500488 696.954834,433.963837 700.551025,434.001434 
	C708.836304,434.088013 717.108643,434.249298 725.363403,435.003815 
	C725.848022,435.048126 726.353088,434.960205 726.839600,434.879364 
	C733.554443,433.763885 733.554077,433.761505 737.343262,438.267670 
	C739.460327,438.103912 740.713318,436.323700 742.429016,435.391785 
	C748.901123,431.875946 757.313049,434.925751 759.812866,441.746094 
	C761.468750,446.264099 760.437866,447.835114 755.602600,448.143402 
	C753.794922,448.258636 751.985840,448.352325 750.196655,448.454712 
	C750.289673,452.869843 750.289673,452.869843 748.675842,455.719940 
	C754.395142,460.739960 755.787659,451.732422 759.952026,452.018494 
	C760.509216,456.193604 758.044006,459.502411 753.425232,460.997070 
	C745.402344,463.593414 738.782104,460.197876 734.797363,452.702332 
	C733.117798,449.542877 733.482056,444.923737 728.893799,443.318573 
	C726.184570,442.370758 724.684631,442.197601 724.978516,445.661987 
	C725.004517,445.968353 725.363403,446.285950 725.315735,446.553375 
	C723.754517,455.310242 723.749878,455.309418 728.200806,460.225098 
	C727.253357,462.105499 725.454407,461.713470 723.887695,461.734589 
	C713.143860,461.879639 702.382385,460.568085 691.654236,462.266571 
	C688.169617,462.818237 685.562927,461.209747 683.577026,458.372894 
	C682.675293,457.084839 682.392822,455.162018 680.388245,454.849030 
	C675.322327,464.915192 668.159302,464.877319 660.999329,454.648315 
	C660.593933,461.142731 656.531555,461.264648 651.646118,461.501221 
	C640.563843,462.037781 629.489380,460.734558 618.400146,461.886353 
	C613.680298,462.376617 608.835999,460.751495 604.018494,461.940186 
	C602.544861,462.303833 601.046631,462.423035 600.253113,463.986023 
	C597.745850,468.923767 593.479980,471.066803 588.182129,471.626434 
	C587.589172,471.689056 587.039612,472.161743 585.422363,472.963959 
	C711.923401,472.756042 837.296936,472.672668 963.653442,473.032257 
	C961.431702,477.008942 959.036987,476.149048 957.083740,476.163208 
	C945.919006,476.244141 934.753418,476.193390 923.588074,476.201172 
	C921.265869,476.202820 918.819763,476.027435 918.034790,478.830780 
	C918.501831,481.074707 921.028870,480.535339 921.647766,481.946655 
	C921.906677,488.506134 919.699280,495.073486 923.489929,501.274048 
	C922.350037,501.943390 921.130676,502.631958 919.938660,503.365112 
	C917.514709,504.855927 916.447144,504.264313 916.842346,501.382721 
	C916.884094,501.078796 916.995056,500.784363 917.073914,500.485535 
	C912.766602,499.557922 913.824280,493.830841 910.049133,492.373016 
	C907.213379,496.435394 911.808960,499.412079 912.017029,503.398804 
	C905.776489,501.240356 902.718262,498.048798 903.639404,491.642853 
	C904.317627,486.926300 903.410278,482.027100 905.453857,476.226562 
	C896.747375,477.046600 888.298767,473.247681 880.991028,479.895233 
	C878.609924,482.061279 877.467163,484.573853 878.845215,487.788147 
	C881.537109,488.115417 881.900879,485.886322 882.936890,484.563812 
	C886.870117,479.542969 893.256287,478.508789 897.936707,482.198853 
	C902.271667,485.616547 902.641968,493.482605 898.676453,497.881287 
	C897.468201,499.221558 895.862793,500.217163 895.423035,502.193481 
	C894.926270,504.426208 892.791016,504.048065 891.312988,504.231323 
	C889.479797,504.458618 888.333740,503.608215 889.641052,501.530457 
	C889.703430,501.431274 889.415100,500.921509 889.238525,500.889832 
	C885.344482,500.191040 882.694153,497.768768 880.387268,494.757507 
	C880.045044,494.310852 879.131165,494.613861 878.565918,495.509644 
M628.248108,482.325867 
	C625.908936,484.495972 624.464722,487.030701 624.374146,490.355164 
	C624.300171,493.070679 625.117004,495.184082 627.935425,495.421600 
	C630.796326,495.662689 631.218811,493.238861 631.610291,491.019745 
	C632.251221,487.385773 630.464355,484.197601 630.485840,480.588104 
	C631.729309,479.974854 632.921936,479.263550 632.494141,477.602570 
	C632.266113,476.717041 631.445435,476.332550 630.555725,476.333771 
	C624.424744,476.342224 618.293457,476.351196 612.162964,476.419220 
	C610.940918,476.432770 609.721252,476.881531 609.704712,478.345673 
	C609.689697,479.678040 610.647766,480.454590 611.941406,480.598267 
	C614.345642,480.865356 616.292786,482.096405 618.168274,483.448517 
	C622.035217,479.720398 622.035217,479.720398 628.248108,482.325867 
M820.370667,476.459564 
	C808.901428,475.852173 797.433228,476.392975 785.963684,476.442291 
	C770.985901,476.506744 756.007202,476.331512 741.028870,476.276123 
	C738.522705,476.266846 736.602478,477.099731 735.538086,481.529938 
	C743.882507,477.414795 751.004089,485.839508 758.815796,480.935760 
	C759.857666,480.281738 761.797180,480.318176 763.010864,482.293030 
	C760.304810,484.308533 759.745850,487.611053 758.617432,490.582611 
	C757.766052,492.824768 759.131653,494.695618 761.204102,495.236023 
	C763.751465,495.900299 763.722351,493.572876 763.688721,492.009796 
	C763.588013,487.320099 768.076965,485.460510 769.757629,481.877197 
	C770.169861,480.998291 771.982910,480.470093 772.354492,481.089325 
	C774.611084,484.850281 780.038269,482.567444 782.333618,487.849670 
	C783.869812,483.280640 784.690063,477.491974 788.437378,478.499481 
	C791.020020,479.193848 796.325806,475.952789 796.785217,482.574524 
	C801.487854,477.053802 803.275085,482.688446 806.248413,484.486328 
	C808.546753,479.382874 812.316101,480.504425 816.229919,481.375244 
	C815.975281,484.051727 812.993286,486.639191 816.815125,488.929443 
	C817.931030,485.257965 815.543640,479.898102 821.923584,479.028137 
	C822.835449,478.903778 821.874268,477.377625 820.370667,476.459564 
M848.185120,476.408813 
	C843.871216,477.827576 838.399170,473.544800 834.881958,479.089081 
	C834.793213,479.229095 833.903870,479.089996 833.604492,478.830872 
	C831.505676,477.014435 829.041077,477.918304 828.865356,479.812073 
	C828.601685,482.653503 825.789246,486.096619 829.130493,489.095367 
	C830.914612,487.634674 830.506409,486.256226 830.410767,484.964020 
	C830.244995,482.724976 830.619934,480.776428 833.411316,480.889313 
	C836.594971,481.018036 835.778809,483.422760 835.657776,485.346893 
	C835.412720,489.242645 834.714539,493.157715 835.848633,497.009460 
	C838.248352,497.005707 838.359070,495.315552 838.879517,493.978638 
	C840.146362,490.723907 841.432678,487.476685 842.697021,484.220947 
	C843.894653,481.136902 845.859192,479.743378 848.757019,482.084991 
	C850.472168,483.470947 851.867798,482.812012 853.345947,482.153290 
	C858.934509,479.662811 864.787476,480.074127 870.255005,481.743805 
	C873.112671,482.616455 873.810913,480.026215 875.841064,480.058716 
	C876.462463,480.068695 876.811462,478.766815 876.401611,477.912598 
	C875.490967,476.014740 873.652893,476.243774 872.043213,476.241547 
	C864.386230,476.230835 856.729004,476.303772 848.185120,476.408813 
M657.702026,477.748138 
	C660.262207,481.716309 660.470581,486.154358 660.383789,490.685272 
	C660.330383,493.471222 661.109192,495.988434 663.780029,498.655518 
	C664.209900,491.699738 666.837952,485.505310 662.188049,478.978607 
	C668.414185,479.938202 674.640259,480.897827 680.946838,481.869812 
	C681.451965,480.500275 682.504700,479.122040 681.919983,476.559021 
	C674.084717,475.813843 666.127319,476.527740 657.702026,477.748138 
M597.721497,445.684784 
	C594.421509,448.371307 599.920532,450.388550 598.121887,453.186157 
	C594.616211,452.955933 590.678040,450.766449 587.214417,454.615936 
	C591.185181,454.998840 594.990417,455.313690 598.228821,457.601593 
	C599.608643,458.576447 600.561096,457.721008 601.643250,456.721130 
	C603.996765,454.546631 604.388611,451.842499 603.948425,448.979523 
	C603.424805,445.573395 600.351990,445.840576 597.721497,445.684784 
M888.321411,486.687225 
	C885.584839,489.466980 886.586243,492.133331 888.798767,494.506805 
	C890.454346,496.282898 892.428894,495.704987 894.154724,494.401245 
	C896.375000,492.723999 896.437073,490.300751 895.462280,488.138031 
	C894.145081,485.215729 891.701416,484.701660 888.321411,486.687225 
M680.270081,444.963043 
	C683.253479,442.997650 682.574341,440.914185 679.988220,439.547821 
	C678.059998,438.529053 675.363892,437.112427 673.574524,439.427124 
	C671.317993,442.346222 671.824829,445.706696 673.335205,449.218292 
	C675.988525,447.960632 676.265503,444.011749 680.270081,444.963043 
M699.948547,476.260193 
	C698.362000,476.405701 696.457886,475.884857 695.723694,477.972351 
	C695.415771,478.847534 696.035583,479.565338 696.709839,480.085144 
	C698.983276,481.837677 708.226685,480.680359 710.513184,478.235168 
	C707.784241,474.951385 704.020142,476.839172 699.948547,476.260193 
M613.508972,444.788177 
	C613.286438,447.054047 612.468628,449.623718 616.095825,449.955170 
	C618.645935,450.188202 620.372803,449.154175 620.464722,446.493073 
	C620.549805,444.031281 620.531433,440.972015 617.868225,440.109924 
	C615.103210,439.214813 613.799316,441.424530 613.508972,444.788177 
M585.387756,439.019287 
	C582.404419,439.501404 581.576294,441.690643 582.437134,446.242889 
	C582.723206,447.755615 583.234985,448.823395 584.901428,448.575745 
	C586.560974,448.329102 587.651733,447.253387 587.365051,445.510040 
	C587.026367,443.450409 586.378418,441.441650 585.387756,439.019287 
M913.522461,482.790405 
	C913.754761,486.126160 914.528625,487.881744 916.086975,488.607971 
	C917.417175,482.944580 916.710449,481.819977 911.743591,481.814514 
	C912.229431,482.077087 912.657471,482.308441 913.522461,482.790405 
M689.194275,481.497070 
	C691.833252,482.513489 692.115601,485.334351 693.444092,487.723267 
	C695.776184,485.451965 694.738770,483.413940 693.792297,481.620972 
	C692.783386,479.709534 691.141174,480.063202 689.194275,481.497070 
M858.936401,488.189392 
	C858.807556,486.453766 857.605103,485.897369 856.213196,486.230896 
	C853.980164,486.765900 855.179565,489.250275 853.780762,490.221924 
	C856.834717,492.987701 858.155334,491.725311 858.936401,488.189392 
M694.949646,456.628082 
	C699.385010,455.411987 697.703125,452.077972 697.517517,449.241974 
	C697.133850,451.954224 693.907043,453.398499 694.949646,456.628082 
M807.627319,497.812622 
	C807.550476,496.130096 808.633362,494.237610 806.801331,492.827393 
	C803.737183,495.487000 803.737183,495.487000 806.761719,500.278351 
	C807.074402,499.566956 807.321167,499.005524 807.627319,497.812622 
M646.898193,481.298828 
	C646.635254,483.869659 647.526733,485.609222 650.605164,486.399475 
	C650.600952,483.537781 651.059692,480.988739 646.898193,481.298828 
M740.333984,494.653381 
	C738.506165,492.391174 738.044617,492.389679 734.874634,494.833282 
	C736.626953,495.759430 738.188232,496.181732 740.333984,494.653381 
M644.510498,438.936737 
	C642.156677,439.406403 642.140747,440.997833 642.900024,442.694946 
	C643.257568,443.493988 644.367310,443.770844 645.051697,443.146027 
	C646.382996,441.930664 646.222778,440.518677 644.510498,438.936737 
M722.031555,480.092529 
	C724.666016,480.367218 724.902100,478.804230 724.806091,476.481171 
	C722.348694,476.552765 719.153320,475.298645 722.031555,480.092529 
z"/>
<path fill="#000000" opacity="1.000000" stroke="none" 
	d="
M191.786926,560.907104 
	C187.449677,560.647888 183.470428,561.915833 178.516907,559.952515 
	C190.230743,550.649170 197.218094,539.539429 196.783218,524.314636 
	C193.743271,525.289307 193.287598,527.942993 192.136322,529.892151 
	C182.982895,545.389587 170.872925,557.205017 152.744171,561.425110 
	C127.471619,567.308044 100.691605,553.823975 90.530991,530.270874 
	C88.990463,526.699829 88.276360,522.939758 87.798141,519.165527 
	C86.987770,512.769775 92.186081,505.978394 98.648582,504.396515 
	C101.070908,503.803558 101.689720,505.257660 101.812080,507.048523 
	C102.027687,510.204254 101.953209,513.378723 102.116798,516.539246 
	C103.129761,536.109070 119.566872,552.198608 139.233154,552.959290 
	C155.993637,553.607605 169.202164,548.025513 176.793472,532.086426 
	C180.328842,524.663269 179.931458,517.288940 177.220337,509.851044 
	C174.343735,501.959015 170.352112,494.688904 164.718201,488.385193 
	C157.605942,480.427338 150.158798,472.799500 142.307922,465.567902 
	C131.930679,456.009186 123.104256,445.248138 116.670738,432.617645 
	C115.936729,431.176636 115.378319,429.221588 113.294800,429.448303 
	C111.106087,429.686432 110.525444,431.631836 110.132141,433.458679 
	C107.593704,445.249420 111.590057,455.122925 119.393562,463.685242 
	C126.604340,471.597198 135.573318,477.556976 143.432953,484.760437 
	C156.799118,497.010681 166.349899,511.467346 169.703217,529.604736 
	C170.173752,532.149780 169.533127,534.225952 168.190308,536.176636 
	C167.158615,537.675232 165.944183,539.382202 163.956894,539.349915 
	C161.475342,539.309570 161.741791,536.784058 161.040665,535.239807 
	C154.106781,519.968262 143.658920,507.317017 131.628647,495.876740 
	C123.903961,488.530853 115.179047,482.312317 107.699188,474.669159 
	C88.783775,455.340881 92.788979,423.654388 116.420250,410.441254 
	C135.210358,399.935059 154.310104,400.473297 172.770233,411.827301 
	C175.357056,413.418304 177.467880,413.597015 180.195679,412.636353 
	C192.932343,408.150787 205.401443,409.312195 217.573853,414.816650 
	C223.440079,417.469421 226.014359,420.550049 226.700165,425.711182 
	C224.161072,426.656311 222.741776,424.541382 221.096909,423.479034 
	C211.306503,417.155945 200.638458,415.764496 189.448456,417.966400 
	C183.740616,419.089539 183.214966,420.952332 186.364426,425.799591 
	C187.813705,428.030121 189.114563,430.360168 190.408264,432.686462 
	C190.710541,433.230011 190.710266,433.941833 190.840088,434.534668 
	C184.239410,438.050415 176.912582,436.317596 173.547638,430.294800 
	C171.634613,426.870758 169.584198,426.762390 166.803711,429.109711 
	C160.633896,434.318390 155.727509,440.624634 151.122528,447.174164 
	C148.965607,450.241821 150.270355,452.696594 152.797607,455.009369 
	C159.184937,460.854553 165.992310,466.246643 171.867691,472.647827 
	C176.946793,478.181488 181.854752,483.876648 185.658035,490.362762 
	C188.143799,494.601929 191.552231,494.059235 195.175537,492.921143 
	C199.070312,491.697784 198.474442,488.782440 197.986801,485.573883 
	C196.989639,479.012848 196.222275,472.399384 195.751678,465.779663 
	C194.903229,453.845062 191.237122,448.980530 180.052856,445.668091 
	C178.277542,445.142273 175.551392,445.508484 176.020859,442.456390 
	C176.409821,439.927673 178.874573,440.358124 180.501465,440.343262 
	C192.652191,440.232300 204.805374,440.390869 216.956100,440.280090 
	C227.945374,440.179932 238.939331,440.004425 249.917084,439.533112 
	C254.012146,439.357330 257.567871,437.334808 260.164215,433.977173 
	C261.661194,432.041229 263.435730,430.692291 266.052795,430.794250 
	C268.100342,430.874054 269.441284,431.899567 268.992004,433.893188 
	C267.020447,442.642090 266.050934,451.512024 265.962860,460.410339 
	C262.482208,461.237823 260.284515,460.117493 258.399994,457.964233 
	C252.261124,450.949982 244.307022,448.246033 235.213455,448.255371 
	C229.713730,448.261017 224.212158,448.302643 218.714966,448.174744 
	C215.652878,448.103516 214.075180,449.110016 214.088058,452.441650 
	C214.133087,464.106598 214.029480,475.772064 213.992371,487.437347 
	C213.984375,489.952362 214.930557,491.570862 217.761017,491.633270 
	C225.775696,491.809937 233.732498,491.341309 241.504471,489.270508 
	C245.112198,488.309235 248.061752,486.108276 250.781570,483.568176 
	C252.308884,482.141754 254.296555,481.116333 256.206268,482.475555 
	C258.230957,483.916626 256.748077,485.897949 256.083740,487.450928 
	C253.142532,494.326263 251.644104,501.367157 252.940353,508.853119 
	C253.109680,509.831024 253.089676,510.868225 251.937363,511.631500 
	C249.604065,511.973907 248.676926,509.946289 247.402710,508.534546 
	C238.946396,499.165741 227.788208,499.014771 216.478729,499.518158 
	C214.269058,499.616547 214.112457,501.537750 214.110107,503.267273 
	C214.092468,516.266663 214.148132,529.266541 214.042068,542.265076 
	C214.017273,545.303406 215.615479,546.690552 218.067657,547.858826 
	C223.268784,550.336670 227.649551,553.732971 230.379974,560.062195 
	C217.298737,560.825195 204.725723,559.527283 191.786926,560.907104 
M129.802719,414.224213 
	C127.677116,415.163208 125.486282,415.979645 123.440338,417.068359 
	C119.865929,418.970428 118.849747,421.399567 121.490341,425.112427 
	C125.460075,430.694153 129.726669,435.975586 134.599396,440.792511 
	C137.663498,443.821503 140.035034,444.185150 143.175110,440.479858 
	C148.438934,434.268463 154.210876,428.480652 160.672607,423.443176 
	C164.903793,420.144653 164.736435,418.309357 159.755966,416.104523 
	C150.312698,411.924011 140.579758,410.858673 129.802719,414.224213 
z"/>
<path fill="#000000" opacity="1.000000" stroke="none" 
	d="
M483.945160,464.000000 
	C483.741150,477.981964 483.990906,491.490326 483.213928,504.939331 
	C482.215790,522.216553 472.945587,535.149292 459.742340,545.556396 
	C447.722290,555.030884 435.702240,564.510864 423.475464,573.713745 
	C420.483673,575.965637 418.668182,581.078552 414.740906,580.307190 
	C411.583374,579.687012 409.070038,575.956482 406.194153,573.704041 
	C393.615814,563.852234 381.101166,553.915710 368.389618,544.238220 
	C353.106689,532.603210 345.792145,517.125305 345.700165,498.140564 
	C345.583160,473.994507 345.791687,449.846283 345.560669,425.701874 
	C345.513824,420.803986 347.093018,419.422089 351.830536,419.579132 
	C362.954865,419.947968 374.151459,420.292877 384.920349,416.600281 
	C395.628265,412.928558 405.401367,407.782684 412.484253,398.539368 
	C412.961121,397.917023 413.709137,397.502441 414.678955,396.705261 
	C432.970581,417.646118 457.038452,421.290802 483.942596,419.208160 
	C483.942596,434.317627 483.942596,448.908813 483.945160,464.000000 
M436.651245,550.121826 
	C443.597046,544.690002 450.846191,539.598267 457.412811,533.741211 
	C465.838959,526.225647 471.616608,516.765869 472.572449,505.338287 
	C474.502869,482.259125 472.535950,459.089081 473.587860,435.975616 
	C473.795288,431.417969 471.886383,429.088348 467.116058,429.330383 
	C449.133148,430.242798 432.975922,425.015015 418.394531,414.640167 
	C416.250671,413.114777 414.274780,412.794159 412.011963,414.430389 
	C397.187866,425.149414 380.612213,430.130066 362.335815,429.369324 
	C357.877655,429.183777 356.169434,431.088043 356.203705,435.625641 
	C356.368439,457.440186 355.996429,479.262482 356.425659,501.070007 
	C356.674683,513.720276 361.448425,524.950073 371.473297,533.041992 
	C384.417389,543.490234 397.837830,553.346924 410.983093,563.548584 
	C413.796539,565.731995 416.135590,565.797729 418.973206,563.536438 
	C424.569824,559.076599 430.370880,554.873352 436.651245,550.121826 
z"/>
<path fill="#000000" opacity="1.000000" stroke="none" 
	d="
M836.017090,442.030884 
	C834.986694,435.172394 835.353333,434.954590 841.921814,434.588348 
	C846.270508,434.345856 850.536621,436.163208 855.054993,434.154816 
	C857.667786,432.993500 860.322998,435.391022 862.093079,437.918762 
	C867.942383,434.412018 873.498779,431.257538 879.302856,437.165558 
	C882.659302,440.582031 882.893188,444.378540 881.161743,448.937561 
	C876.968201,447.868652 872.887695,447.791046 868.914307,449.452240 
	C868.552307,451.530609 869.046204,453.128296 870.663940,454.224121 
	C873.067749,454.367310 872.489319,452.176697 873.558411,450.772766 
	C875.661133,455.655487 877.432190,450.491760 879.502747,450.786163 
	C883.446838,451.346893 882.513977,454.751282 882.976746,457.328156 
	C886.131165,455.611786 886.971558,451.644196 884.336243,450.619659 
	C882.705322,449.985596 883.067322,449.163818 883.458069,448.789398 
	C887.584839,444.833832 885.190857,441.564850 882.600464,438.179199 
	C882.052307,437.462769 881.612244,436.402649 882.381409,434.971191 
	C884.840332,434.144562 887.670166,434.883728 890.418274,434.664795 
	C894.210693,434.362671 897.999084,434.897980 901.832703,433.966797 
	C904.615479,433.290802 907.400391,434.531647 909.436401,436.801270 
	C910.636719,438.139404 911.533325,439.867737 914.108215,439.880829 
	C912.283752,438.042175 912.165588,436.295013 914.346008,435.034332 
	C919.630066,431.979187 925.863708,433.675201 930.118469,439.301025 
	C932.385193,439.442627 934.020264,438.053864 935.807434,436.872986 
	C940.855469,433.537506 946.222412,432.537079 951.854370,435.315674 
	C953.162048,435.960815 954.442688,436.895111 955.382935,437.997314 
	C956.903442,439.779572 957.128662,441.976562 956.062927,444.089203 
	C955.237488,445.725525 953.683044,446.365112 951.879395,446.214325 
	C949.232788,445.993103 948.192810,444.091919 947.827942,441.842133 
	C947.499634,439.817719 947.519653,437.334045 944.729675,437.732178 
	C941.264771,438.226562 940.735779,441.335846 940.393982,444.200256 
	C940.117981,446.513580 940.707520,448.200043 943.638489,447.792664 
	C945.296326,447.562256 946.827148,448.237061 947.071960,449.924011 
	C947.506775,452.920959 943.836548,452.272980 942.826355,454.195648 
	C942.998352,456.607147 944.443909,457.693573 946.720703,457.806183 
	C949.021667,457.919983 951.008179,457.388458 952.044373,454.986481 
	C952.816040,453.197723 953.599915,450.521210 956.136719,452.239410 
	C958.502686,453.841949 956.386169,455.866852 955.300110,457.336548 
	C952.110657,461.652863 947.645935,463.270264 942.506042,462.072021 
	C937.242249,460.844940 932.804199,458.253510 931.747986,452.304077 
	C931.284912,449.695770 930.193604,447.179657 930.683411,444.420959 
	C926.184448,445.030212 926.693909,445.075958 926.067200,452.053101 
	C925.685913,456.298218 929.703064,458.020905 930.708679,462.502655 
	C924.785767,461.255890 919.740540,461.456818 914.682434,461.567963 
	C904.406128,461.793915 894.093567,462.117889 883.856140,461.462067 
	C880.079712,461.220123 876.722168,461.465424 873.061401,462.123688 
	C866.294189,463.340546 860.215393,458.267822 859.611816,451.195068 
	C859.266296,447.145721 858.102844,444.221527 853.890076,443.055145 
	C852.921631,442.786957 852.088318,442.128937 851.165344,442.964447 
	C850.075256,443.951233 850.222046,445.480316 851.014526,446.118103 
	C854.119934,448.617096 852.946594,452.624695 854.674133,455.642578 
	C855.815125,457.635803 854.693420,460.773865 852.651306,461.005005 
	C847.190796,461.623016 841.580811,462.078278 835.303101,460.715210 
	C837.826538,457.462677 840.513000,455.343628 840.151428,451.321503 
	C839.835510,447.806580 839.149048,444.834167 836.240356,442.239136 
	C836.000000,442.003448 836.017090,442.030884 836.017090,442.030884 
M911.357483,444.779510 
	C909.140564,448.282501 910.347229,452.082764 910.516846,455.758209 
	C910.582153,457.172852 911.876648,458.069122 913.296509,458.193085 
	C914.908630,458.333923 916.147156,457.457489 917.006958,456.128693 
	C917.817078,454.876587 917.895630,452.989105 916.816162,452.506683 
	C913.357422,450.960968 914.031189,447.103241 911.357483,444.779510 
M899.310608,450.144470 
	C898.690796,452.479767 893.626709,453.532440 897.301270,457.107056 
	C901.534424,455.772522 903.051697,453.078430 901.489136,449.463593 
	C900.864197,448.017792 900.014648,447.676208 899.310608,450.144470 
M872.895264,443.651184 
	C874.924683,442.652740 874.721802,441.172699 873.709778,439.593842 
	C873.025330,438.526031 871.993713,438.028229 870.756104,438.498291 
	C869.381897,439.020172 868.692688,440.271240 868.696838,441.589661 
	C868.704163,443.931061 870.496704,443.921417 872.895264,443.651184 
z"/>
<path fill="#000000" opacity="1.000000" stroke="none" 
	d="
M617.439758,530.274536 
	C632.139465,528.960144 646.660156,529.969910 661.158813,529.440063 
	C665.728394,529.273071 668.948425,533.549927 673.606689,533.553284 
	C674.457581,533.553894 674.540039,535.170532 674.250977,536.182617 
	C673.914795,537.359131 673.333801,538.196533 671.924438,538.416321 
	C658.322327,540.537598 644.690552,541.227478 630.998657,539.397461 
	C627.767273,538.965515 624.690063,540.071716 621.378662,539.971985 
	C608.365967,539.580322 595.268066,540.870300 582.322205,539.910828 
	C576.054871,539.446289 569.443726,542.490234 563.444824,538.631287 
	C559.082397,542.412598 554.086487,538.517456 549.221375,539.813354 
	C544.336121,541.114502 538.738281,539.900391 533.473938,539.505981 
	C532.155029,539.407104 531.052002,539.069519 529.701477,539.682129 
	C527.083557,540.869812 524.816406,540.530701 524.164368,537.329224 
	C522.061035,537.368103 522.406799,540.084473 520.374268,539.860535 
	C520.196594,539.801392 519.753235,539.795227 519.602661,539.582092 
	C517.900635,537.174194 518.852295,534.464661 518.824463,531.873657 
	C518.815308,531.018433 519.990662,529.874878 520.143250,530.105469 
	C522.545349,533.736572 525.889404,527.588684 528.615906,531.059875 
	C529.506653,532.193848 532.525696,530.724426 534.374512,530.529236 
	C537.611023,530.187439 540.983521,530.297546 544.224548,529.937988 
	C551.628906,529.116455 559.184204,529.611328 566.677551,529.662415 
	C569.240540,529.679871 572.042175,531.400879 574.004395,528.162598 
	C574.374878,527.551086 575.435181,527.737244 576.319275,528.009644 
	C585.725769,530.907898 595.074097,530.719360 604.487793,527.400146 
	C605.286682,529.728394 604.055969,533.412109 607.559509,534.367737 
	C610.846619,535.264282 610.255127,531.109192 611.802246,530.403015 
	C613.994141,528.622925 615.416565,532.045776 617.439758,530.274536 
z"/>
<path fill="#000000" opacity="1.000000" stroke="none" 
	d="
M943.845703,540.156860 
	C940.737488,540.433655 939.654846,538.782104 939.262939,535.919983 
	C938.581116,539.017395 937.441711,540.270813 934.407227,540.226196 
	C920.314270,540.018799 906.212219,540.345642 892.122131,540.055969 
	C875.838135,539.721252 859.579407,540.384583 843.309082,540.601440 
	C836.914612,540.686768 830.293213,541.690308 824.605225,537.825439 
	C822.911804,538.012695 823.296631,540.366699 821.109680,540.279480 
	C818.181274,538.014221 819.042542,534.266235 819.638733,531.483521 
	C820.231567,528.716370 823.663391,528.722473 826.352173,528.799683 
	C842.421753,529.261169 858.485718,529.962402 874.570557,529.737976 
	C877.996460,529.690186 880.970215,530.625000 881.218933,534.900146 
	C883.567810,533.961426 883.654602,530.994690 885.353577,529.969910 
	C887.658691,529.358093 887.989746,531.671814 889.838623,532.014587 
	C892.084351,529.663757 895.047241,529.696167 898.352661,529.955078 
	C903.876892,530.387756 909.349243,528.950012 915.026917,529.582520 
	C918.859070,530.009521 920.762756,530.474731 919.963806,535.144287 
	C920.748535,530.512634 924.145691,530.799194 927.021301,529.315369 
	C933.977966,525.725830 940.547791,531.318604 947.520264,528.547974 
	C950.124939,527.513000 955.129150,529.867004 959.253174,530.070679 
	C961.844666,530.198608 962.739258,534.173645 962.522583,536.299011 
	C962.259949,538.875854 959.935913,540.807068 956.591797,540.214539 
	C952.490784,539.487854 948.352783,539.287170 943.845703,540.156860 
z"/>
<path fill="#000000" opacity="1.000000" stroke="none" 
	d="
M690.911133,540.302856 
	C687.862122,540.223206 685.028076,540.822144 683.592773,538.068115 
	C681.511780,537.706421 681.100159,540.975403 679.058838,539.666931 
	C676.868774,538.263000 677.921570,536.044800 677.993713,534.163513 
	C678.063965,532.330078 678.360352,530.163330 680.638611,529.895447 
	C687.493896,529.089417 694.408752,530.551208 701.302979,529.415588 
	C703.159424,529.109802 703.781311,531.266296 704.369995,532.864197 
	C705.016357,531.884399 705.695862,530.149902 706.199463,530.199585 
	C711.409729,530.713379 716.254456,526.754761 721.622070,529.132324 
	C725.090210,530.668518 729.036438,529.744385 732.419495,529.343079 
	C739.896484,528.456116 747.199402,529.617310 754.572449,529.585327 
	C764.985962,529.540161 775.477356,530.034729 785.780090,528.894653 
	C791.290283,528.284912 796.488464,527.927734 801.688049,529.475037 
	C805.597534,530.638367 808.655457,534.440735 813.472839,532.995056 
	C814.293457,532.748779 814.814209,534.410767 814.535706,535.407715 
	C814.042297,537.173889 812.692932,538.249146 810.910828,538.365906 
	C800.237244,539.065063 789.610962,541.240417 778.878479,540.094116 
	C769.938599,539.139221 761.080505,540.789307 752.157166,540.296509 
	C743.024231,539.792114 733.721497,541.342285 724.767944,540.338257 
	C715.682068,539.319214 706.654114,542.033203 697.681458,539.596497 
	C695.772217,539.078064 693.463928,540.028992 690.911133,540.302856 
z"/>
<path fill="#000000" opacity="1.000000" stroke="none" 
	d="
M792.363525,437.304626 
	C795.497498,439.415588 797.163330,438.312195 798.405579,435.443665 
	C799.070618,433.907837 799.530884,431.402466 802.019836,432.260193 
	C804.125916,432.985992 804.074890,435.306915 803.627747,437.022156 
	C802.539917,441.196075 804.436096,445.864227 802.119812,449.793152 
	C799.579895,449.527740 799.365173,447.789703 798.629944,446.582703 
	C797.469360,444.677246 795.690247,443.579712 793.641418,443.974396 
	C791.438354,444.398773 791.650940,446.643188 791.290283,448.433624 
	C790.233032,453.681671 792.939148,457.114380 797.127563,460.233093 
	C789.643921,461.838776 782.607178,461.496765 775.004150,460.704437 
	C782.812500,456.270477 779.309753,449.234467 779.873901,443.285461 
	C780.202271,439.822662 779.994446,436.304596 779.953979,432.812286 
	C779.899475,428.109375 781.234619,422.899475 775.144897,420.718842 
	C776.758240,418.135193 778.768738,418.755554 780.486877,418.738251 
	C787.139160,418.671204 793.792786,418.728210 800.445862,418.735260 
	C808.479797,418.743744 811.514160,423.757660 808.148865,431.602509 
	C805.847351,431.430511 805.614441,429.269623 804.673828,427.862091 
	C803.358032,425.893341 801.941956,424.088135 799.631897,423.254395 
	C794.425537,421.375336 791.537903,423.203857 791.397095,428.700409 
	C791.325928,431.475739 790.737976,434.356354 792.363525,437.304626 
z"/>
<path fill="#000000" opacity="1.000000" stroke="none" 
	d="
M835.989258,441.991577 
	C836.321106,448.551636 836.544434,455.020264 830.111694,459.379547 
	C824.061707,463.479431 816.273865,463.319702 810.613708,458.743530 
	C805.423401,454.547211 804.729187,448.314789 808.535461,439.550751 
	C808.178406,437.802185 804.724243,438.527252 805.655762,435.052673 
	C810.793091,439.005463 815.144348,434.035278 820.062622,433.962036 
	C826.344482,433.868469 831.666016,436.397003 835.760742,441.810242 
	C836.017090,442.030884 836.000000,442.003448 835.989258,441.991577 
M817.597961,456.031311 
	C817.933167,456.397186 818.244873,456.788422 818.607666,457.124481 
	C820.130127,458.535034 821.718689,458.964783 823.438843,457.424011 
	C825.039734,455.990112 825.032898,454.051178 824.477966,452.361542 
	C823.756775,450.165588 822.381775,450.853760 820.621948,451.672150 
	C819.524231,452.182648 817.692566,451.324677 818.184814,449.086670 
	C818.410828,448.059204 818.636230,446.754333 816.723816,446.328339 
	C815.817444,449.486847 816.179810,452.483887 817.597961,456.031311 
z"/>
<path fill="#000000" opacity="1.000000" stroke="none" 
	d="
M918.720398,420.214478 
	C922.285645,419.420532 925.562988,418.987854 926.992920,422.855164 
	C928.058533,425.737457 927.469116,428.504517 924.556702,430.105225 
	C921.856995,431.589081 919.461365,430.720490 917.523682,428.479187 
	C914.957581,425.511139 915.424683,422.824951 918.720398,420.214478 
z"/>
<path fill="#000000" opacity="1.000000" stroke="none" 
	d="
M391.338074,466.349152 
	C400.651428,453.693817 408.068909,440.348358 413.839081,426.509277 
	C415.841034,426.325867 416.183685,427.372101 416.579773,428.250549 
	C423.384247,443.341675 432.091522,457.319946 441.640747,470.784302 
	C443.224396,473.017242 443.338287,474.745514 442.125580,477.142853 
	C436.384827,488.490997 436.282104,499.884766 442.581085,511.065460 
	C443.854279,513.325317 443.486450,514.614197 441.518738,516.052490 
	C431.423920,523.431091 424.322174,533.101135 419.822357,544.730347 
	C419.018372,546.808105 418.244812,548.516418 415.216980,548.142456 
	C412.477081,547.804077 410.323822,548.397339 408.954163,544.651794 
	C404.756226,533.172119 397.578583,523.600342 388.007721,515.949219 
	C385.808441,514.191040 385.343140,513.027100 386.890259,510.258789 
	C392.172211,500.807678 393.900909,490.563232 389.100403,480.589325 
	C386.341553,474.857208 386.526550,470.728699 391.338074,466.349152 
M417.824554,491.237366 
	C419.862183,489.542725 421.173370,487.759186 420.083160,484.791199 
	C418.991302,481.818634 416.889954,481.353485 413.871338,481.465668 
	C414.887360,483.644501 414.878265,485.040863 412.071228,485.694000 
	C409.899597,486.199280 409.791321,489.160889 411.192108,489.864899 
	C414.390869,491.472595 413.187042,493.861572 413.285461,496.139252 
	C413.395111,498.676636 412.692078,501.332947 413.921295,503.827789 
	C416.791138,503.285614 416.498322,501.334564 416.679230,499.533386 
	C416.939972,496.937561 415.862030,494.229828 417.824554,491.237366 
z"/>
</svg>